<?xml version="1.0" encoding="utf-8"?>
<!-- Generator: Adobe Illustrator 15.0.0, SVG Export Plug-In  -->
<!DOCTYPE svg PUBLIC "-//W3C//DTD SVG 1.1//EN" "http://www.w3.org/Graphics/SVG/1.1/DTD/svg11.dtd" [
	<!ENTITY ns_flows "http://ns.adobe.com/Flows/1.0/">
]>
<svg version="1.1"
	 xmlns="http://www.w3.org/2000/svg" xmlns:xlink="http://www.w3.org/1999/xlink" xmlns:a="http://ns.adobe.com/AdobeSVGViewerExtensions/3.0/"
	 x="0px" y="0px" width="814px" height="488px" viewBox="551.097 213.079 814 488" enable-background="new 551.097 213.079 814 488"
	 xml:space="preserve">
<defs>
</defs>
<g>
	<defs>
		<rect id="SVGID_1_" x="584.855" y="225.176" width="780.484" height="462.942"/>
	</defs>
	<clipPath id="SVGID_2_">
		<use xlink:href="#SVGID_1_"  overflow="visible"/>
	</clipPath>
	<g clip-path="url(#SVGID_2_)">
		<g>
			
				<line fill="none" stroke="#272727" stroke-width="0.25" stroke-miterlimit="10" x1="1200.097" y1="862.079" x2="1908.097" y2="0.079"/>
		</g>
		<g>
			
				<line fill="none" stroke="#272727" stroke-width="0.25" stroke-miterlimit="10" x1="1188.097" y1="862.079" x2="1896.097" y2="0.079"/>
		</g>
		<g>
			
				<line fill="none" stroke="#272727" stroke-width="0.25" stroke-miterlimit="10" x1="1176.097" y1="862.079" x2="1884.097" y2="0.079"/>
		</g>
		<g>
			
				<line fill="none" stroke="#272727" stroke-width="0.25" stroke-miterlimit="10" x1="1164.097" y1="862.079" x2="1872.097" y2="0.079"/>
		</g>
		<g>
			
				<line fill="none" stroke="#272727" stroke-width="0.25" stroke-miterlimit="10" x1="1152.097" y1="862.079" x2="1860.097" y2="0.079"/>
		</g>
		<g>
			
				<line fill="none" stroke="#272727" stroke-width="0.25" stroke-miterlimit="10" x1="1140.097" y1="862.079" x2="1848.097" y2="0.079"/>
		</g>
		<g>
			
				<line fill="none" stroke="#272727" stroke-width="0.25" stroke-miterlimit="10" x1="1128.097" y1="862.079" x2="1836.097" y2="0.079"/>
		</g>
		<g>
			
				<line fill="none" stroke="#272727" stroke-width="0.25" stroke-miterlimit="10" x1="1116.097" y1="862.079" x2="1824.097" y2="0.079"/>
		</g>
		<g>
			
				<line fill="none" stroke="#272727" stroke-width="0.25" stroke-miterlimit="10" x1="1104.097" y1="862.079" x2="1812.097" y2="0.079"/>
		</g>
		<g>
			
				<line fill="none" stroke="#272727" stroke-width="0.25" stroke-miterlimit="10" x1="1092.097" y1="862.079" x2="1800.097" y2="0.079"/>
		</g>
		<g>
			
				<line fill="none" stroke="#272727" stroke-width="0.25" stroke-miterlimit="10" x1="1080.097" y1="862.079" x2="1788.097" y2="0.079"/>
		</g>
		<g>
			
				<line fill="none" stroke="#272727" stroke-width="0.25" stroke-miterlimit="10" x1="1068.097" y1="862.079" x2="1776.097" y2="0.079"/>
		</g>
		<g>
			
				<line fill="none" stroke="#272727" stroke-width="0.25" stroke-miterlimit="10" x1="1056.097" y1="862.079" x2="1764.097" y2="0.079"/>
		</g>
		<g>
			
				<line fill="none" stroke="#272727" stroke-width="0.25" stroke-miterlimit="10" x1="1044.097" y1="862.079" x2="1752.097" y2="0.079"/>
		</g>
		<g>
			
				<line fill="none" stroke="#272727" stroke-width="0.25" stroke-miterlimit="10" x1="1032.097" y1="862.079" x2="1740.097" y2="0.079"/>
		</g>
		<g>
			
				<line fill="none" stroke="#272727" stroke-width="0.25" stroke-miterlimit="10" x1="1020.097" y1="862.079" x2="1728.097" y2="0.079"/>
		</g>
		<g>
			
				<line fill="none" stroke="#272727" stroke-width="0.25" stroke-miterlimit="10" x1="1008.097" y1="862.079" x2="1716.097" y2="0.079"/>
		</g>
		<g>
			
				<line fill="none" stroke="#272727" stroke-width="0.25" stroke-miterlimit="10" x1="996.097" y1="862.079" x2="1704.097" y2="0.079"/>
		</g>
		<g>
			
				<line fill="none" stroke="#272727" stroke-width="0.25" stroke-miterlimit="10" x1="984.097" y1="862.079" x2="1692.097" y2="0.079"/>
		</g>
		<g>
			
				<line fill="none" stroke="#272727" stroke-width="0.25" stroke-miterlimit="10" x1="972.097" y1="862.079" x2="1680.097" y2="0.079"/>
		</g>
		<g>
			
				<line fill="none" stroke="#272727" stroke-width="0.25" stroke-miterlimit="10" x1="960.097" y1="862.079" x2="1668.097" y2="0.079"/>
		</g>
		<g>
			
				<line fill="none" stroke="#272727" stroke-width="0.25" stroke-miterlimit="10" x1="948.097" y1="862.079" x2="1656.097" y2="0.079"/>
		</g>
		<g>
			
				<line fill="none" stroke="#272727" stroke-width="0.25" stroke-miterlimit="10" x1="936.097" y1="862.079" x2="1644.097" y2="0.079"/>
		</g>
		<g>
			
				<line fill="none" stroke="#272727" stroke-width="0.25" stroke-miterlimit="10" x1="924.097" y1="862.079" x2="1632.097" y2="0.079"/>
		</g>
		<g>
			
				<line fill="none" stroke="#272727" stroke-width="0.25" stroke-miterlimit="10" x1="912.097" y1="862.079" x2="1620.097" y2="0.079"/>
		</g>
		<g>
			
				<line fill="none" stroke="#272727" stroke-width="0.25" stroke-miterlimit="10" x1="900.097" y1="862.079" x2="1608.097" y2="0.079"/>
		</g>
		<g>
			
				<line fill="none" stroke="#272727" stroke-width="0.25" stroke-miterlimit="10" x1="888.097" y1="862.079" x2="1596.097" y2="0.079"/>
		</g>
		<g>
			
				<line fill="none" stroke="#272727" stroke-width="0.25" stroke-miterlimit="10" x1="876.097" y1="862.079" x2="1584.097" y2="0.079"/>
		</g>
		<g>
			
				<line fill="none" stroke="#272727" stroke-width="0.25" stroke-miterlimit="10" x1="864.097" y1="862.079" x2="1572.097" y2="0.079"/>
		</g>
		<g>
			
				<line fill="none" stroke="#272727" stroke-width="0.25" stroke-miterlimit="10" x1="852.097" y1="862.079" x2="1560.097" y2="0.079"/>
		</g>
		<g>
			
				<line fill="none" stroke="#272727" stroke-width="0.25" stroke-miterlimit="10" x1="840.097" y1="862.079" x2="1548.097" y2="0.079"/>
		</g>
		<g>
			
				<line fill="none" stroke="#272727" stroke-width="0.25" stroke-miterlimit="10" x1="828.097" y1="862.079" x2="1536.097" y2="0.079"/>
		</g>
		<g>
			
				<line fill="none" stroke="#272727" stroke-width="0.25" stroke-miterlimit="10" x1="816.097" y1="862.079" x2="1524.097" y2="0.079"/>
		</g>
		<g>
			
				<line fill="none" stroke="#272727" stroke-width="0.25" stroke-miterlimit="10" x1="804.097" y1="862.079" x2="1512.097" y2="0.079"/>
		</g>
		<g>
			
				<line fill="none" stroke="#272727" stroke-width="0.25" stroke-miterlimit="10" x1="792.097" y1="862.079" x2="1500.097" y2="0.079"/>
		</g>
		<g>
			
				<line fill="none" stroke="#272727" stroke-width="0.25" stroke-miterlimit="10" x1="780.097" y1="862.079" x2="1488.097" y2="0.079"/>
		</g>
		<g>
			
				<line fill="none" stroke="#272727" stroke-width="0.25" stroke-miterlimit="10" x1="768.097" y1="862.079" x2="1476.097" y2="0.079"/>
		</g>
		<g>
			
				<line fill="none" stroke="#272727" stroke-width="0.25" stroke-miterlimit="10" x1="756.097" y1="862.079" x2="1464.097" y2="0.079"/>
		</g>
		<g>
			
				<line fill="none" stroke="#272727" stroke-width="0.25" stroke-miterlimit="10" x1="744.097" y1="862.079" x2="1452.097" y2="0.079"/>
		</g>
		<g>
			
				<line fill="none" stroke="#272727" stroke-width="0.25" stroke-miterlimit="10" x1="732.097" y1="862.079" x2="1440.097" y2="0.079"/>
		</g>
		<g>
			
				<line fill="none" stroke="#272727" stroke-width="0.25" stroke-miterlimit="10" x1="720.097" y1="862.079" x2="1428.097" y2="0.079"/>
		</g>
		<g>
			
				<line fill="none" stroke="#272727" stroke-width="0.25" stroke-miterlimit="10" x1="708.097" y1="862.079" x2="1416.097" y2="0.079"/>
		</g>
		<g>
			
				<line fill="none" stroke="#272727" stroke-width="0.25" stroke-miterlimit="10" x1="696.097" y1="862.079" x2="1404.097" y2="0.079"/>
		</g>
		<g>
			
				<line fill="none" stroke="#272727" stroke-width="0.25" stroke-miterlimit="10" x1="684.097" y1="862.079" x2="1392.097" y2="0.079"/>
		</g>
		<g>
			
				<line fill="none" stroke="#272727" stroke-width="0.25" stroke-miterlimit="10" x1="672.097" y1="862.079" x2="1380.097" y2="0.079"/>
		</g>
		<g>
			
				<line fill="none" stroke="#272727" stroke-width="0.25" stroke-miterlimit="10" x1="660.097" y1="862.079" x2="1368.097" y2="0.079"/>
		</g>
		<g>
			
				<line fill="none" stroke="#272727" stroke-width="0.25" stroke-miterlimit="10" x1="648.097" y1="862.079" x2="1356.097" y2="0.079"/>
		</g>
		<g>
			
				<line fill="none" stroke="#272727" stroke-width="0.25" stroke-miterlimit="10" x1="636.097" y1="862.079" x2="1344.097" y2="0.079"/>
		</g>
		<g>
			
				<line fill="none" stroke="#272727" stroke-width="0.25" stroke-miterlimit="10" x1="624.097" y1="862.079" x2="1332.097" y2="0.079"/>
		</g>
		<g>
			
				<line fill="none" stroke="#272727" stroke-width="0.25" stroke-miterlimit="10" x1="612.097" y1="862.079" x2="1320.097" y2="0.079"/>
		</g>
		<g>
			
				<line fill="none" stroke="#272727" stroke-width="0.25" stroke-miterlimit="10" x1="600.097" y1="862.079" x2="1308.097" y2="0.079"/>
		</g>
		<g>
			
				<line fill="none" stroke="#272727" stroke-width="0.25" stroke-miterlimit="10" x1="588.097" y1="862.079" x2="1296.097" y2="0.079"/>
		</g>
		<g>
			
				<line fill="none" stroke="#272727" stroke-width="0.25" stroke-miterlimit="10" x1="576.097" y1="862.079" x2="1284.097" y2="0.079"/>
		</g>
		<g>
			
				<line fill="none" stroke="#272727" stroke-width="0.25" stroke-miterlimit="10" x1="564.097" y1="862.079" x2="1272.097" y2="0.079"/>
		</g>
		<g>
			
				<line fill="none" stroke="#272727" stroke-width="0.25" stroke-miterlimit="10" x1="552.097" y1="862.079" x2="1260.097" y2="0.079"/>
		</g>
		<g>
			
				<line fill="none" stroke="#272727" stroke-width="0.25" stroke-miterlimit="10" x1="540.097" y1="862.079" x2="1248.097" y2="0.079"/>
		</g>
		<g>
			
				<line fill="none" stroke="#272727" stroke-width="0.25" stroke-miterlimit="10" x1="528.097" y1="862.079" x2="1236.097" y2="0.079"/>
		</g>
		<g>
			
				<line fill="none" stroke="#272727" stroke-width="0.25" stroke-miterlimit="10" x1="516.097" y1="862.079" x2="1224.097" y2="0.079"/>
		</g>
		<g>
			
				<line fill="none" stroke="#272727" stroke-width="0.25" stroke-miterlimit="10" x1="504.097" y1="862.079" x2="1212.097" y2="0.079"/>
		</g>
		<g>
			
				<line fill="none" stroke="#272727" stroke-width="0.25" stroke-miterlimit="10" x1="492.097" y1="862.079" x2="1200.097" y2="0.079"/>
		</g>
		<g>
			
				<line fill="none" stroke="#272727" stroke-width="0.25" stroke-miterlimit="10" x1="480.097" y1="862.079" x2="1188.097" y2="0.079"/>
		</g>
		<g>
			
				<line fill="none" stroke="#272727" stroke-width="0.25" stroke-miterlimit="10" x1="468.097" y1="862.079" x2="1176.097" y2="0.079"/>
		</g>
		<g>
			
				<line fill="none" stroke="#272727" stroke-width="0.25" stroke-miterlimit="10" x1="456.097" y1="862.079" x2="1164.097" y2="0.079"/>
		</g>
		<g>
			
				<line fill="none" stroke="#272727" stroke-width="0.25" stroke-miterlimit="10" x1="444.097" y1="862.079" x2="1152.097" y2="0.079"/>
		</g>
		<g>
			
				<line fill="none" stroke="#272727" stroke-width="0.25" stroke-miterlimit="10" x1="432.097" y1="862.079" x2="1140.097" y2="0.079"/>
		</g>
		<g>
			
				<line fill="none" stroke="#272727" stroke-width="0.25" stroke-miterlimit="10" x1="420.097" y1="862.079" x2="1128.097" y2="0.079"/>
		</g>
		<g>
			
				<line fill="none" stroke="#272727" stroke-width="0.25" stroke-miterlimit="10" x1="408.097" y1="862.079" x2="1116.097" y2="0.079"/>
		</g>
		<g>
			
				<line fill="none" stroke="#272727" stroke-width="0.25" stroke-miterlimit="10" x1="396.097" y1="862.079" x2="1104.097" y2="0.079"/>
		</g>
		<g>
			
				<line fill="none" stroke="#272727" stroke-width="0.25" stroke-miterlimit="10" x1="384.097" y1="862.079" x2="1092.097" y2="0.079"/>
		</g>
		<g>
			
				<line fill="none" stroke="#272727" stroke-width="0.25" stroke-miterlimit="10" x1="372.097" y1="862.079" x2="1080.097" y2="0.079"/>
		</g>
		<g>
			
				<line fill="none" stroke="#272727" stroke-width="0.25" stroke-miterlimit="10" x1="360.097" y1="862.079" x2="1068.097" y2="0.079"/>
		</g>
		<g>
			
				<line fill="none" stroke="#272727" stroke-width="0.25" stroke-miterlimit="10" x1="348.097" y1="862.079" x2="1056.097" y2="0.079"/>
		</g>
		<g>
			
				<line fill="none" stroke="#272727" stroke-width="0.25" stroke-miterlimit="10" x1="336.097" y1="862.079" x2="1044.097" y2="0.079"/>
		</g>
		<g>
			
				<line fill="none" stroke="#272727" stroke-width="0.25" stroke-miterlimit="10" x1="324.097" y1="862.079" x2="1032.097" y2="0.079"/>
		</g>
		<g>
			
				<line fill="none" stroke="#272727" stroke-width="0.25" stroke-miterlimit="10" x1="312.097" y1="862.079" x2="1020.097" y2="0.079"/>
		</g>
		<g>
			
				<line fill="none" stroke="#272727" stroke-width="0.25" stroke-miterlimit="10" x1="300.097" y1="862.079" x2="1008.097" y2="0.079"/>
		</g>
		<g>
			
				<line fill="none" stroke="#272727" stroke-width="0.25" stroke-miterlimit="10" x1="288.097" y1="862.079" x2="996.097" y2="0.079"/>
		</g>
		<g>
			
				<line fill="none" stroke="#272727" stroke-width="0.25" stroke-miterlimit="10" x1="276.097" y1="862.079" x2="984.097" y2="0.079"/>
		</g>
		<g>
			
				<line fill="none" stroke="#272727" stroke-width="0.25" stroke-miterlimit="10" x1="264.097" y1="862.079" x2="972.097" y2="0.079"/>
		</g>
		<g>
			
				<line fill="none" stroke="#272727" stroke-width="0.25" stroke-miterlimit="10" x1="252.097" y1="862.079" x2="960.097" y2="0.079"/>
		</g>
		<g>
			
				<line fill="none" stroke="#272727" stroke-width="0.25" stroke-miterlimit="10" x1="240.097" y1="862.079" x2="948.097" y2="0.079"/>
		</g>
		<g>
			
				<line fill="none" stroke="#272727" stroke-width="0.25" stroke-miterlimit="10" x1="228.097" y1="862.079" x2="936.097" y2="0.079"/>
		</g>
		<g>
			
				<line fill="none" stroke="#272727" stroke-width="0.25" stroke-miterlimit="10" x1="216.097" y1="862.079" x2="924.097" y2="0.079"/>
		</g>
		<g>
			
				<line fill="none" stroke="#272727" stroke-width="0.25" stroke-miterlimit="10" x1="204.097" y1="862.079" x2="912.097" y2="0.079"/>
		</g>
		<g>
			
				<line fill="none" stroke="#272727" stroke-width="0.25" stroke-miterlimit="10" x1="192.097" y1="862.079" x2="900.097" y2="0.079"/>
		</g>
		<g>
			
				<line fill="none" stroke="#272727" stroke-width="0.25" stroke-miterlimit="10" x1="180.097" y1="862.079" x2="888.097" y2="0.079"/>
		</g>
		<g>
			
				<line fill="none" stroke="#272727" stroke-width="0.25" stroke-miterlimit="10" x1="168.097" y1="862.079" x2="876.097" y2="0.079"/>
		</g>
		<g>
			
				<line fill="none" stroke="#272727" stroke-width="0.25" stroke-miterlimit="10" x1="156.097" y1="862.079" x2="864.097" y2="0.079"/>
		</g>
		<g>
			
				<line fill="none" stroke="#272727" stroke-width="0.25" stroke-miterlimit="10" x1="144.097" y1="862.079" x2="852.097" y2="0.079"/>
		</g>
		<g>
			
				<line fill="none" stroke="#272727" stroke-width="0.25" stroke-miterlimit="10" x1="132.097" y1="862.079" x2="840.097" y2="0.079"/>
		</g>
		<g>
			
				<line fill="none" stroke="#272727" stroke-width="0.25" stroke-miterlimit="10" x1="120.097" y1="862.079" x2="828.097" y2="0.079"/>
		</g>
		<g>
			
				<line fill="none" stroke="#272727" stroke-width="0.25" stroke-miterlimit="10" x1="108.097" y1="862.079" x2="816.097" y2="0.079"/>
		</g>
		<g>
			
				<line fill="none" stroke="#272727" stroke-width="0.25" stroke-miterlimit="10" x1="96.097" y1="862.079" x2="804.097" y2="0.079"/>
		</g>
		<g>
			
				<line fill="none" stroke="#272727" stroke-width="0.25" stroke-miterlimit="10" x1="84.097" y1="862.079" x2="792.097" y2="0.079"/>
		</g>
		<g>
			
				<line fill="none" stroke="#272727" stroke-width="0.25" stroke-miterlimit="10" x1="72.097" y1="862.079" x2="780.097" y2="0.079"/>
		</g>
		<g>
			
				<line fill="none" stroke="#272727" stroke-width="0.25" stroke-miterlimit="10" x1="60.097" y1="862.079" x2="768.097" y2="0.079"/>
		</g>
		<g>
			
				<line fill="none" stroke="#272727" stroke-width="0.25" stroke-miterlimit="10" x1="48.097" y1="862.079" x2="756.097" y2="0.079"/>
		</g>
		<g>
			
				<line fill="none" stroke="#272727" stroke-width="0.25" stroke-miterlimit="10" x1="36.097" y1="862.079" x2="744.097" y2="0.079"/>
		</g>
		<g>
			
				<line fill="none" stroke="#272727" stroke-width="0.25" stroke-miterlimit="10" x1="24.097" y1="862.079" x2="732.097" y2="0.079"/>
		</g>
		<g>
			
				<line fill="none" stroke="#272727" stroke-width="0.25" stroke-miterlimit="10" x1="12.097" y1="862.079" x2="720.097" y2="0.079"/>
		</g>
		<g>
			
				<line fill="none" stroke="#272727" stroke-width="0.25" stroke-miterlimit="10" x1="0.097" y1="862.079" x2="708.097" y2="0.079"/>
		</g>
	</g>
</g>
</svg>
